{"title":"The Boy 2016 TS HQ XviD-PARS","uid":13414972,"size":1323348314,"categoryP":"video","categoryS":"movies","magnet":"?xt=urn:btih:54665e1fb29543a96d3313fd1757adb2c9c86b7c&amp;dn=The+Boy+2016+TS+HQ+XviD-PARS&amp;tr=udp%3A%2F%2Ftracker.leechers-paradise.org%3A6969&amp;tr=udp%3A%2F%2Fzer0day.ch%3A1337&amp;tr=udp%3A%2F%2Fopen.demonii.com%3A1337&amp;tr=udp%3A%2F%2Ftracker.coppersurfer.tk%3A6969&amp;tr=udp%3A%2F%2Fexodus.desync.com%3A6969","seeders":5,"leechers":0,"uploader":"makintos13","files":2,"time":1454480397,"description":"The Boy 2016 TS HQ XviD-PARS\r\n\r\nScreens:\r\n \nhttp://imgmak.com/KEo\r\n \nhttp://imgmak.com/KEN\r\n \nhttp://imgmak.com/KEQ\r\n \nhttp://imgmak.com/KES\r\n\r\nFormat : Matroska\r\nFormat version : Version 4 / Version 2\r\nFile size : 1.23 GiB\r\nDuration : 1h 28mn\r\nOverall bit rate : 1 992 Kbps\r\nEncoded date : UTC 2016-02-01 21:12:32\r\nWriting application : mkvmerge v8.8.0 ('Wind at my back') 64bit\r\nWriting library : libebml v1.3.3 + libmatroska v1.4.4\r\n\r\nVideo\r\nID : 1\r\nFormat : MPEG-4 Visual\r\nFormat profile : Advanced   \r\nFormat settings, BVOP : 1\r\nFormat settings, QPel : No\r\nFormat settings, GMC : No warppoints\r\nFormat settings, Matrix : Default (H.263)\r\nMuxing mode : Packed bitstream\r\nCodec ID : V_MS/VFW/FOURCC / XVID\r\nCodec ID/Hint : XviD\r\nDuration : 1h 28mn\r\nBit rate : 1 798 Kbps\r\nWidth : 720 pixels\r\nHeight : 320 pixels\r\nDisplay aspect ratio : 2.25:1\r\nFrame rate mode : Constant\r\nFrame rate : 23.976 (24000/1001) fps\r\nColor space : YUV\r\nChroma subsampling : 4:2:0\r\nBit depth : 8 bits\r\nScan type : Progressive\r\nCompression mode : Lossy\r\nBits/(Pixel*Frame) : 0.326\r\nStream size : 1.11 GiB (90%)\r\nWriting library : XviD 1.2.1 (UTC 2008-12-04)\r\nLanguage : English\r\nDefault : Yes\r\nForced : No\r\n\r\nAudio\r\nID : 2\r\nFormat : AC-3\r\nFormat/Info : Audio Coding 3\r\nMode extension : CM (complete main)\r\nFormat settings, Endianness : Big\r\nCodec ID : A_AC3\r\nDuration : 1h 28mn\r\nBit rate mode : Constant\r\nBit rate : 192 Kbps\r\nChannel(s) : 2 channels\r\nChannel positions : Front: L R\r\nSampling rate : 48.0 KHz\r\nFrame rate : 31.250 fps (1536 spf)\r\nCompression mode : Lossy\r\nStream size : 122 MiB (10%)\r\nLanguage : English\r\nDefault : Yes\r\nForced : No","torrent":{"xt":"urn:btih:54665e1fb29543a96d3313fd1757adb2c9c86b7c","amp;dn":"The+Boy+2016+TS+HQ+XviD-PARS","amp;tr":["udp%3A%2F%2Ftracker.leechers-paradise.org%3A6969","udp%3A%2F%2Fzer0day.ch%3A1337","udp%3A%2F%2Fopen.demonii.com%3A1337","udp%3A%2F%2Ftracker.coppersurfer.tk%3A6969","udp%3A%2F%2Fexodus.desync.com%3A6969"],"infoHash":"54665e1fb29543a96d3313fd1757adb2c9c86b7c","infoHashBuffer":{"type":"Buffer","data":[84,102,94,31,178,149,67,169,109,51,19,253,23,87,173,178,201,200,107,124]},"announce":[],"urlList":[]}}